<svg width="26" height="28" xmlns="http://www.w3.org/2000/svg">
    <g fill="#000" fill-rule="nonzero">
        <path d="M25.21 13H10.79c-.435 0-.79.225-.79.5s.355.5.79.5h14.42c.435 0 .79-.225.79-.5s-.347-.5-.79-.5zM4 10c-2.21 0-4 1.79-4 4s1.79 4 4 4 4-1.79 4-4-1.79-4-4-4zm0 6.28A2.278 2.278 0 0 1 1.72 14 2.278 2.278 0 0 1 4 11.72 2.283 2.283 0 0 1 6.28 14 2.283 2.283 0 0 1 4 16.28zM25.21 3H10.79c-.435 0-.79.225-.79.5s.355.5.79.5h14.42c.435 0 .79-.225.79-.5s-.347-.5-.79-.5zM4 0C1.79 0 0 1.79 0 4s1.79 4 4 4 4-1.79 4-4a4.009 4.009 0 0 0-4-4zm0 6.288a2.278 2.278 0 0 1-2.28-2.28A2.283 2.283 0 0 1 4 1.73a2.278 2.278 0 0 1 2.28 2.28A2.283 2.283 0 0 1 4 6.289zM25.21 24H10.79c-.435 0-.79.225-.79.5s.355.5.79.5h14.42c.435 0 .79-.225.79-.5s-.347-.5-.79-.5zM4 20c-2.21 0-4 1.79-4 4s1.79 4 4 4 4-1.79 4-4c0-2.202-1.79-4-4-4zm0 6.288a2.278 2.278 0 0 1-2.28-2.28A2.278 2.278 0 0 1 4 21.73a2.278 2.278 0 0 1 2.28 2.28A2.283 2.283 0 0 1 4 26.289z"/>
    </g>
</svg>
